# xmcd
#
# Track frame offsets: 
#        183
#        14220
#        26995
#        41320
#        54308
#        69145
#        82708
#        95295
#        107545
#        120570
#        131095
#        145795
#        156508
#        171308
#        182958
#        195233
#        207445
#        219508
#        231433
#        244345
#        254458
#        268695
#        281183
#        299045
#        319158
#
# Disc length: 4399 seconds
#
# Revision: 5
# Processed by: cddbd v1.5.1PL2 Copyright (c) Steve Scherf et al.
# Submitted via: ExactAudioCopy v0.95b3
#
DISCID=7e112d19
DTITLE=Various Artist - The Blues vol.2
DYEAR=1991
DGENRE=Blues
TTITLE0=Memphis Slim and The House Rockers - I Guess I'm a Fool
TTITLE1=Jimmy Rogers - That's All Right
TTITLE2=Willie Mabon - I Don't Know
TTITLE3=Memphis Minnie - Me And My Chauffeur
TTITLE4=Eddie Boyd - Third Degree
TTITLE5=Jimmy Nelson - Free And Easy Mind
TTITLE6=Muddy Waters - Just Make Love To Me
TTITLE7=Otis Spann - It Must Have Been The Devil
TTITLE8=Lowell Fulson - Trouble, Trouble
TTITLE9=Percy Mayfield - Double Dealing
TTITLE10=Sonny Boy Williamson - The Key
TTITLE11=B.B. King - Recession Blues
TTITLE12=Jimmy Witherspoon - Goin' Down Slow
TTITLE13=Larry Williams - My Baby's Got Soul
TTITLE14=Howlin' Wolf - Spoonful
TTITLE15=Elmore James - The Sun Is Shining
TTITLE16=Otis Rush - You Know My Love
TTITLE17=Albert King - Wild Woman
TTITLE18=Betty James - I'm a Little Mixed Up
TTITLE19=Little Milton - Lonely No More
TTITLE20=Bo Diddley - You Can't Judge a Book By Its Cover
TTITLE21=Little Walter - Dead Presidents
TTITLE22=Buddy Guy - Stick Around
TTITLE23=Willie Dixon - Weak Brain Narrow Mind
TTITLE24=Laura Lee - Need To Belong
EXTD=YEAR: 1991 ID3G: 0
EXTT0=
EXTT1=
EXTT2=
EXTT3=
EXTT4=
EXTT5=
EXTT6=
EXTT7=
EXTT8=
EXTT9=
EXTT10=
EXTT11=
EXTT12=
EXTT13=
EXTT14=
EXTT15=
EXTT16=
EXTT17=
EXTT18=
EXTT19=
EXTT20=
EXTT21=
EXTT22=
EXTT23=
EXTT24=
PLAYORDER=
